<svg xmlns="http://www.w3.org/2000/svg" viewBox="0 0 32 32" fill="none">
  <circle cx="16" cy="16" r="15" fill="#033C81"/>
  <line x1="16" y1="7" x2="16" y2="27" stroke="white" stroke-width="2" stroke-linecap="round"/>
  <circle cx="16" cy="6" r="2.5" stroke="white" stroke-width="1.5" fill="none"/>
  <path d="M12 10C10 12 10 15 12 17C14 19 16 18 16 20C16 20 14 21 13 23C12 25 14 26 16 26" stroke="white" stroke-width="1.5" stroke-linecap="round" fill="none"/>
  <path d="M20 10C22 12 22 15 20 17C18 19 16 18 16 20C16 20 18 21 19 23C20 25 18 26 16 26" stroke="white" stroke-width="1.5" stroke-linecap="round" fill="none"/>
  <path d="M11 9C9 8 7 9 7 11" stroke="white" stroke-width="1.2" stroke-linecap="round"/>
  <path d="M21 9C23 8 25 9 25 11" stroke="white" stroke-width="1.2" stroke-linecap="round"/>
</svg>
