<svg xmlns="http://www.w3.org/2000/svg" xmlns:xlink="http://www.w3.org/1999/xlink" width="500" zoomAndPan="magnify" viewBox="0 0 375 374.999991" height="500" preserveAspectRatio="xMidYMid meet" version="1.0"><defs><g/></defs><g fill="#003366" fill-opacity="1"><g transform="translate(33.152346, 224.77421)"><g><path d="M 18.203125 -18.09375 L 10.34375 -10.125 L 10.34375 0 L 6.265625 0 L 6.265625 -38.5 L 10.34375 -38.5 L 10.34375 -15.234375 L 32.9375 -38.5 L 37.625 -38.5 L 20.953125 -21.0625 L 38.78125 0 L 33.9375 0 Z M 18.203125 -18.09375 "/></g></g></g><g fill="#003366" fill-opacity="1"><g transform="translate(71.704525, 224.77421)"><g><path d="M 20.1875 -29.15625 C 23.8125 -29.15625 26.695312 -28.097656 28.84375 -25.984375 C 30.988281 -23.878906 32.0625 -20.8125 32.0625 -16.78125 L 32.0625 0 L 28.15625 0 L 28.15625 -16.390625 C 28.15625 -19.398438 27.40625 -21.691406 25.90625 -23.265625 C 24.40625 -24.835938 22.257812 -25.625 19.46875 -25.625 C 16.351562 -25.625 13.882812 -24.695312 12.0625 -22.84375 C 10.25 -21 9.34375 -18.445312 9.34375 -15.1875 L 9.34375 0 L 5.4375 0 L 5.4375 -28.9375 L 9.1875 -28.9375 L 9.1875 -23.59375 C 10.25 -25.351562 11.722656 -26.71875 13.609375 -27.6875 C 15.492188 -28.664062 17.6875 -29.15625 20.1875 -29.15625 Z M 20.1875 -29.15625 "/></g></g></g><g fill="#003366" fill-opacity="1"><g transform="translate(109.046823, 224.77421)"><g><path d="M 17.265625 0.28125 C 14.484375 0.28125 11.972656 -0.347656 9.734375 -1.609375 C 7.492188 -2.878906 5.734375 -4.632812 4.453125 -6.875 C 3.171875 -9.113281 2.53125 -11.644531 2.53125 -14.46875 C 2.53125 -17.289062 3.171875 -19.816406 4.453125 -22.046875 C 5.734375 -24.285156 7.492188 -26.03125 9.734375 -27.28125 C 11.972656 -28.53125 14.484375 -29.15625 17.265625 -29.15625 C 20.054688 -29.15625 22.566406 -28.53125 24.796875 -27.28125 C 27.035156 -26.03125 28.785156 -24.285156 30.046875 -22.046875 C 31.316406 -19.816406 31.953125 -17.289062 31.953125 -14.46875 C 31.953125 -11.644531 31.316406 -9.113281 30.046875 -6.875 C 28.785156 -4.632812 27.035156 -2.878906 24.796875 -1.609375 C 22.566406 -0.347656 20.054688 0.28125 17.265625 0.28125 Z M 17.265625 -3.1875 C 19.316406 -3.1875 21.160156 -3.65625 22.796875 -4.59375 C 24.429688 -5.53125 25.707031 -6.859375 26.625 -8.578125 C 27.539062 -10.304688 28 -12.269531 28 -14.46875 C 28 -16.664062 27.539062 -18.625 26.625 -20.34375 C 25.707031 -22.070312 24.429688 -23.398438 22.796875 -24.328125 C 21.160156 -25.265625 19.316406 -25.734375 17.265625 -25.734375 C 15.210938 -25.734375 13.367188 -25.265625 11.734375 -24.328125 C 10.109375 -23.398438 8.828125 -22.070312 7.890625 -20.34375 C 6.953125 -18.625 6.484375 -16.664062 6.484375 -14.46875 C 6.484375 -12.269531 6.953125 -10.304688 7.890625 -8.578125 C 8.828125 -6.859375 10.109375 -5.53125 11.734375 -4.59375 C 13.367188 -3.65625 15.210938 -3.1875 17.265625 -3.1875 Z M 17.265625 -3.1875 "/></g></g></g><g fill="#003366" fill-opacity="1"><g transform="translate(142.704363, 224.77421)"><g><path d="M 47.90625 -28.9375 L 36.953125 0 L 33.28125 0 L 24.140625 -23.703125 L 15.015625 0 L 11.328125 0 L 0.4375 -28.9375 L 4.1875 -28.9375 L 13.25 -4.34375 L 22.546875 -28.9375 L 25.90625 -28.9375 L 35.140625 -4.34375 L 44.328125 -28.9375 Z M 47.90625 -28.9375 "/></g></g></g><g fill="#333333" fill-opacity="1"><g transform="translate(191.050773, 224.77421)"><g><path d="M 38.4375 -38.5 L 38.4375 0 L 34.4375 0 L 34.4375 -17.765625 L 10.34375 -17.765625 L 10.34375 0 L 6.265625 0 L 6.265625 -38.5 L 10.34375 -38.5 L 10.34375 -21.34375 L 34.4375 -21.34375 L 34.4375 -38.5 Z M 38.4375 -38.5 "/></g></g></g><g fill="#333333" fill-opacity="1"><g transform="translate(235.762528, 224.77421)"><g><path d="M 23.09375 0.328125 C 19.28125 0.328125 15.820312 -0.519531 12.71875 -2.21875 C 9.625 -3.925781 7.207031 -6.265625 5.46875 -9.234375 C 3.726562 -12.203125 2.859375 -15.539062 2.859375 -19.25 C 2.859375 -22.957031 3.726562 -26.296875 5.46875 -29.265625 C 7.207031 -32.234375 9.625 -34.566406 12.71875 -36.265625 C 15.820312 -37.972656 19.28125 -38.828125 23.09375 -38.828125 C 26.90625 -38.828125 30.34375 -37.984375 33.40625 -36.296875 C 36.46875 -34.609375 38.878906 -32.269531 40.640625 -29.28125 C 42.398438 -26.300781 43.28125 -22.957031 43.28125 -19.25 C 43.28125 -15.539062 42.398438 -12.191406 40.640625 -9.203125 C 38.878906 -6.222656 36.46875 -3.890625 33.40625 -2.203125 C 30.34375 -0.515625 26.90625 0.328125 23.09375 0.328125 Z M 23.09375 -3.296875 C 26.144531 -3.296875 28.894531 -3.984375 31.34375 -5.359375 C 33.800781 -6.734375 35.726562 -8.640625 37.125 -11.078125 C 38.519531 -13.515625 39.21875 -16.238281 39.21875 -19.25 C 39.21875 -22.257812 38.519531 -24.984375 37.125 -27.421875 C 35.726562 -29.859375 33.800781 -31.765625 31.34375 -33.140625 C 28.894531 -34.515625 26.144531 -35.203125 23.09375 -35.203125 C 20.050781 -35.203125 17.289062 -34.515625 14.8125 -33.140625 C 12.34375 -31.765625 10.398438 -29.859375 8.984375 -27.421875 C 7.578125 -24.984375 6.875 -22.257812 6.875 -19.25 C 6.875 -16.238281 7.578125 -13.515625 8.984375 -11.078125 C 10.398438 -8.640625 12.34375 -6.734375 14.8125 -5.359375 C 17.289062 -3.984375 20.050781 -3.296875 23.09375 -3.296875 Z M 23.09375 -3.296875 "/></g></g></g><g fill="#333333" fill-opacity="1"><g transform="translate(280.749227, 224.77421)"><g><path d="M 59.125 -38.5 L 46.140625 0 L 41.859375 0 L 30.578125 -32.828125 L 19.25 0 L 15.015625 0 L 2.03125 -38.5 L 6.21875 -38.5 L 17.328125 -5.390625 L 28.8125 -38.5 L 32.609375 -38.5 L 43.9375 -5.21875 L 55.21875 -38.5 Z M 59.125 -38.5 "/></g></g></g></svg>