<svg xmlns="http://www.w3.org/2000/svg" xmlns:xlink="http://www.w3.org/1999/xlink"
     width="20"
     height="20"
     zoomAndPan="magnify"
     viewBox="530 300 380 202.5"
     preserveAspectRatio="xMidYMid meet" version="1.2">
    <defs><clipPath id="984d269858">
        <path d="M 531.628906 231.558594 L 908.128906 231.558594 L 908.128906 555.558594 L 531.628906 555.558594 Z M 531.628906 231.558594 "/></clipPath></defs><g id="0719fab718"><g clip-rule="nonzero" clip-path="url(#984d269858)"><path style=" stroke:none;fill-rule:nonzero;fill:#033C81;fill-opacity:1;" d="M 802.449219 231.613281 C 785.085938 231.847656 771 234.203125 760.183594 238.679688 C 753.898438 241.210938 747.941406 245.007812 742.316406 250.074219 C 738.03125 254.703125 736.273438 258.023438 737.035156 260.027344 L 772.351562 244.6875 C 778.558594 240.183594 783.253906 237.269531 786.433594 235.941406 C 790.714844 234.074219 796.054688 232.628906 802.457031 231.613281 Z M 611.691406 301.292969 C 613.375 301.292969 615.144531 301.394531 617 301.59375 C 617.011719 301.589844 617.03125 301.589844 617.054688 301.589844 C 617.515625 301.589844 620.089844 302.046875 624.78125 302.964844 L 624.777344 302.964844 C 623.144531 303.269531 621.261719 303.667969 619.128906 304.15625 C 617.773438 304.347656 616.589844 304.445312 615.582031 304.449219 C 614.554688 304.441406 613.613281 304.367188 612.765625 304.234375 C 608.921875 303.429688 606.75 303.027344 606.25 303.027344 C 605.800781 302.957031 605.296875 302.921875 604.746094 302.921875 C 604.226562 302.921875 603.664062 302.953125 603.054688 303.011719 C 602.507812 303.035156 601.964844 303.101562 601.414062 303.203125 C 603.929688 302.195312 606.480469 301.589844 609.066406 301.378906 C 609.917969 301.324219 610.792969 301.292969 611.691406 301.292969 Z M 756.785156 257.109375 C 756.550781 257.109375 756.261719 257.1875 755.925781 257.347656 C 755.570312 257.367188 754.730469 258.324219 753.410156 260.226562 C 744.546875 272.027344 738.636719 280.121094 735.683594 284.503906 C 732.171875 289.664062 730.128906 293.972656 729.5625 297.425781 L 741.882812 290.890625 C 744.339844 289.375 746.011719 288.617188 746.898438 288.617188 C 747.269531 288.617188 747.503906 288.75 747.597656 289.015625 C 747.773438 289.164062 747.804688 289.710938 747.691406 290.65625 C 747.03125 295.84375 746.722656 298.632812 746.773438 299.023438 C 746.699219 300.574219 746.714844 302.089844 746.820312 303.566406 C 746.90625 304.167969 747.070312 304.46875 747.320312 304.46875 C 747.671875 304.46875 748.179688 303.878906 748.851562 302.699219 C 749.890625 299.648438 752.816406 285.058594 757.625 258.917969 C 757.71875 257.710938 757.4375 257.109375 756.785156 257.109375 Z M 813.460938 240.992188 L 809.566406 243.390625 C 810.675781 245.355469 811.378906 248.386719 811.667969 252.484375 C 812.105469 257.027344 812.0625 261.441406 811.535156 265.71875 C 811.472656 266.410156 811.21875 267.824219 810.785156 269.960938 C 810.726562 270.246094 810.628906 270.515625 810.492188 270.769531 L 807.160156 274.117188 C 806.386719 275.082031 805.761719 276.101562 805.285156 277.171875 C 804.578125 278.742188 804.355469 280.265625 804.617188 281.746094 C 804.714844 282.496094 805.078125 283.355469 805.714844 284.328125 C 805.972656 284.808594 807.160156 286.300781 809.277344 288.804688 C 810.273438 290.375 811.054688 291.570312 811.621094 292.386719 L 811.613281 292.386719 L 808.148438 292.605469 L 801.65625 293.570312 C 792.816406 294.738281 783.378906 295.925781 773.34375 297.132812 C 775.25 296.957031 777.175781 296.867188 779.117188 296.867188 C 785.242188 296.867188 791.535156 297.75 797.996094 299.515625 C 800.484375 300.109375 803.683594 301.171875 807.601562 302.707031 C 809.75 303.5625 812.898438 305.253906 817.046875 307.789062 C 817.394531 308.015625 817.921875 308.132812 818.640625 308.136719 C 819.382812 308.054688 819.984375 307.867188 820.457031 307.578125 C 822.839844 305.8125 826.503906 303.703125 831.453125 301.257812 C 833.40625 300.257812 836.589844 298.9375 841.003906 297.296875 C 843.890625 295.972656 853.683594 293.324219 870.382812 289.347656 C 871.101562 289.144531 871.605469 288.820312 871.902344 288.386719 C 872.742188 287.5625 870.859375 287.148438 866.246094 287.148438 C 863.769531 287.148438 860.503906 287.269531 856.453125 287.507812 C 842.425781 288.765625 833.636719 290.003906 830.078125 291.222656 L 820.019531 291.855469 C 820.296875 291.304688 820.507812 290.546875 820.652344 289.582031 C 821.03125 286.050781 821.117188 282.957031 820.910156 280.304688 C 820.8125 279.3125 820.546875 278.402344 820.113281 277.582031 C 820.0625 277.242188 818.800781 275.679688 816.328125 272.886719 C 815.875 272.089844 815.550781 271.152344 815.355469 270.074219 C 815.023438 268.808594 814.675781 261.578125 814.308594 248.386719 C 814.320312 247.839844 814.035156 245.371094 813.460938 240.992188 Z M 567.726562 307.816406 L 567.472656 307.902344 C 566.628906 308.546875 565.773438 309.410156 564.902344 310.488281 C 564.296875 311.257812 564.089844 311.640625 564.28125 311.640625 C 564.320312 311.640625 564.375 311.625 564.441406 311.597656 C 565.527344 310.210938 566.625 308.949219 567.730469 307.816406 Z M 597.640625 316.054688 C 597.191406 316.054688 596.792969 316.097656 596.445312 316.1875 L 603.273438 317.171875 L 599.300781 316.214844 C 598.6875 316.109375 598.132812 316.054688 597.640625 316.054688 Z M 603.273438 317.171875 L 603.492188 317.222656 L 603.492188 317.226562 C 603.472656 317.214844 603.453125 317.203125 603.433594 317.195312 Z M 563.699219 318.828125 C 563.695312 318.832031 563.695312 318.832031 563.695312 318.835938 L 563.691406 318.835938 C 563.691406 318.832031 563.691406 318.832031 563.691406 318.828125 Z M 642.046875 314.753906 L 642.664062 315.730469 C 643.066406 316.800781 643.003906 317.972656 642.480469 319.246094 C 642.445312 319.339844 642.40625 319.429688 642.367188 319.515625 L 642.367188 319.519531 C 642.5 317.675781 642.390625 316.089844 642.042969 314.753906 Z M 627.714844 314.996094 C 627.496094 314.996094 627.140625 315.058594 626.640625 315.179688 C 621.351562 316.640625 618.507812 317.371094 618.109375 317.371094 C 615.347656 317.875 613.164062 318.132812 611.554688 318.152344 C 611.183594 318.164062 610.828125 318.167969 610.488281 318.167969 C 609.21875 318.167969 608.15625 318.101562 607.300781 317.96875 C 606.464844 317.855469 605.554688 317.695312 604.570312 317.484375 L 603.503906 317.226562 L 603.5 317.230469 C 606.179688 318.597656 608.660156 319.484375 610.941406 319.890625 C 612.152344 320.171875 613.6875 320.3125 615.550781 320.3125 C 616.714844 320.3125 618.003906 320.257812 619.421875 320.148438 C 622.328125 319.839844 624.636719 319.21875 626.351562 318.28125 C 628.511719 316.929688 629.027344 315.84375 627.898438 315.023438 C 627.859375 315.003906 627.796875 314.996094 627.714844 314.996094 Z M 741.308594 312.382812 C 740.191406 315.105469 738.972656 317.835938 737.648438 320.578125 L 737.648438 320.582031 C 739.160156 318.386719 740.71875 316.109375 742.328125 313.746094 Z M 584.535156 313.4375 C 583.011719 313.457031 581.554688 313.746094 580.164062 314.316406 C 578.238281 315.210938 576.863281 316.171875 576.039062 317.203125 C 574.917969 318.539062 574.257812 319.636719 574.066406 320.492188 C 573.671875 321.785156 573.480469 323.515625 573.492188 325.675781 C 573.578125 324.171875 574.308594 322.570312 575.679688 320.859375 C 576.605469 319.566406 578.117188 318.257812 580.207031 316.941406 L 584.539062 313.4375 Z M 605.527344 289.304688 C 605.050781 289.304688 604.589844 289.324219 604.148438 289.371094 C 600.117188 289.539062 596.007812 290.90625 591.824219 293.476562 C 588.558594 295.910156 586.710938 298.628906 586.277344 301.632812 L 586.277344 301.636719 C 586.1875 301.625 586.097656 301.613281 586.007812 301.601562 L 586 301.601562 L 586.21875 301.527344 C 585.660156 300.8125 584.472656 300.347656 582.65625 300.128906 C 582.523438 300.117188 582.386719 300.109375 582.238281 300.109375 C 581.277344 300.109375 579.964844 300.378906 578.304688 300.914062 C 574.671875 302.011719 571.152344 304.3125 567.734375 307.8125 L 568.429688 307.574219 L 568.4375 307.578125 C 568.414062 307.59375 568.390625 307.609375 568.371094 307.628906 C 566.835938 308.949219 565.410156 310.691406 564.09375 312.859375 C 562.492188 315.785156 561.597656 318.34375 561.40625 320.535156 C 561.179688 321.925781 561.230469 324.03125 561.5625 326.859375 C 561.726562 325.878906 562.113281 324.820312 562.71875 323.675781 L 563.167969 322.898438 L 563.171875 322.902344 C 563.101562 324.230469 563.148438 325.476562 563.3125 326.640625 L 563.3125 326.644531 C 563.253906 325.375 563.4375 323.902344 563.863281 322.230469 C 563.933594 321.921875 564.011719 321.621094 564.089844 321.320312 L 564.085938 321.320312 L 568.1875 314.265625 L 568.179688 314.265625 C 569.390625 313.535156 570.902344 312.78125 572.71875 312.003906 C 574.394531 311.347656 576.167969 310.949219 578.042969 310.808594 L 578.050781 310.808594 L 577.601562 311.109375 L 577.601562 311.113281 C 577.898438 310.992188 578.199219 310.878906 578.5 310.777344 L 578.496094 310.78125 C 578.347656 310.785156 578.199219 310.796875 578.050781 310.804688 L 578.050781 310.808594 L 584.082031 306.71875 C 584.605469 306.652344 585.0625 306.621094 585.457031 306.621094 C 585.917969 306.621094 586.289062 306.664062 586.574219 306.753906 C 586.738281 306.796875 586.902344 306.847656 587.070312 306.902344 L 588.355469 305.496094 C 587.074219 305.015625 585.660156 304.726562 584.105469 304.628906 L 584.101562 304.628906 L 589.578125 302.289062 C 588.804688 302.082031 588.035156 301.914062 587.269531 301.78125 L 587.265625 301.785156 L 586.21875 302.136719 C 586.234375 301.96875 586.253906 301.800781 586.277344 301.636719 L 586.285156 301.636719 C 586.609375 301.679688 586.9375 301.726562 587.265625 301.78125 L 587.265625 301.785156 L 603.96875 296.117188 C 606.75 295.054688 609.785156 294.523438 613.074219 294.523438 C 613.703125 294.523438 614.347656 294.542969 615 294.582031 C 618.824219 294.921875 622.855469 296.238281 627.097656 298.53125 C 622.035156 294.773438 618.628906 292.652344 616.882812 292.171875 C 612.371094 290.257812 608.585938 289.304688 605.527344 289.304688 Z M 586.832031 314.753906 C 585.996094 314.753906 584.890625 315.023438 583.515625 315.558594 C 582.277344 316.140625 581.105469 316.925781 580 317.914062 C 577.269531 320.5 575.847656 323.566406 575.738281 327.101562 C 576.277344 325.523438 576.632812 324.621094 576.8125 324.390625 C 577.183594 323.738281 577.730469 322.988281 578.457031 322.136719 C 580 320.582031 581.570312 319.417969 583.171875 318.632812 L 587.441406 314.8125 C 587.257812 314.773438 587.054688 314.753906 586.832031 314.753906 Z M 588.894531 317.796875 C 588.007812 317.796875 586.878906 318.019531 585.511719 318.464844 C 584.554688 318.71875 583.492188 319.464844 582.320312 320.695312 C 581.066406 322.011719 580.09375 323.417969 579.398438 324.921875 C 579.128906 325.496094 578.871094 326.339844 578.628906 327.453125 C 578.507812 327.964844 578.417969 328.429688 578.359375 328.84375 C 578.335938 329.023438 578.359375 329.121094 578.4375 329.128906 C 578.441406 329.128906 578.445312 329.128906 578.449219 329.128906 C 578.558594 329.128906 578.734375 329 578.972656 328.738281 C 580.039062 327.140625 581.121094 325.820312 582.226562 324.773438 C 583.265625 323.839844 584.890625 322.664062 587.105469 321.246094 L 590.1875 318.019531 C 589.835938 317.871094 589.40625 317.796875 588.894531 317.796875 Z M 564.085938 338.429688 L 564.085938 338.433594 C 564.261719 338.597656 564.445312 338.761719 564.640625 338.921875 L 564.636719 338.921875 C 564.402344 339.109375 564.164062 339.324219 563.921875 339.566406 L 563.921875 339.570312 L 564.078125 338.429688 Z M 631.273438 325.304688 C 631.5 325.445312 631.527344 325.644531 631.363281 325.90625 C 630.203125 327.011719 629.628906 327.644531 629.640625 327.804688 C 630.285156 328.5625 630.402344 329.253906 629.984375 329.890625 C 629.671875 330.414062 628.128906 331.988281 625.347656 334.613281 C 624.800781 335.214844 624.570312 335.519531 624.65625 335.539062 C 624.632812 335.785156 624.847656 335.964844 625.296875 336.074219 C 627.582031 336.121094 628.679688 336.199219 628.582031 336.3125 C 629.132812 336.507812 629.3125 336.738281 629.125 337 C 628.972656 337.234375 628.746094 337.449219 628.453125 337.65625 C 624.875 339.851562 623.117188 341.0625 623.183594 341.28125 C 623.164062 341.527344 623.328125 341.65625 623.671875 341.664062 C 624.980469 341.488281 625.847656 341.398438 626.277344 341.398438 C 626.386719 341.398438 626.46875 341.40625 626.523438 341.417969 C 626.890625 341.488281 627.066406 341.691406 627.046875 342.027344 C 627.015625 342.195312 626.890625 342.363281 626.671875 342.53125 C 624.054688 344.402344 622.816406 345.355469 622.960938 345.394531 C 622.8125 345.421875 622.769531 345.886719 622.832031 346.792969 C 622.773438 346.886719 622.722656 346.976562 622.667969 347.0625 L 622.664062 347.066406 C 617.652344 347.71875 613.742188 348.042969 610.925781 348.042969 C 610.457031 348.042969 610.019531 348.035156 609.609375 348.015625 C 609.394531 348.019531 609.175781 348.023438 608.953125 348.023438 C 605.371094 348.023438 600.652344 347.574219 594.789062 346.671875 C 587.457031 345.382812 580.179688 343.378906 572.960938 340.664062 C 570.683594 339.84375 568.855469 339.125 567.480469 338.507812 L 567.476562 338.511719 L 567.097656 340.433594 C 566.832031 340.742188 566.585938 341.042969 566.359375 341.339844 C 565.859375 341.085938 565.320312 340.804688 564.738281 340.5 L 564.734375 340.5 C 564.917969 340.15625 565.105469 339.800781 565.296875 339.4375 L 565.304688 339.441406 C 565.347656 339.472656 565.394531 339.503906 565.4375 339.539062 C 565.457031 339.546875 565.472656 339.550781 565.488281 339.550781 C 565.597656 339.550781 565.640625 339.359375 565.613281 338.980469 L 565.621094 338.980469 C 565.628906 338.980469 565.628906 338.9375 565.617188 338.851562 L 565.609375 338.855469 C 565.734375 338.617188 565.863281 338.378906 565.992188 338.136719 L 565.988281 338.140625 C 565.835938 338.191406 565.679688 338.257812 565.519531 338.339844 C 565.484375 338.167969 565.441406 337.960938 565.390625 337.722656 L 565.394531 337.722656 L 566.058594 338.019531 C 566.035156 338.058594 566.015625 338.097656 565.996094 338.136719 C 566.144531 338.085938 566.296875 338.046875 566.441406 338.023438 L 566.449219 338.023438 C 566.757812 338.175781 567.097656 338.339844 567.476562 338.507812 L 567.550781 338.125 C 567.3125 338.039062 567.0625 337.992188 566.808594 337.992188 C 566.691406 337.992188 566.570312 338.003906 566.445312 338.023438 C 566.003906 337.800781 565.628906 337.597656 565.324219 337.40625 L 565.320312 337.410156 C 565.34375 337.515625 565.367188 337.621094 565.390625 337.71875 L 565.390625 337.722656 L 564.25 337.207031 L 564.25 337.210938 L 564.347656 336.523438 L 564.351562 336.523438 C 564.445312 336.765625 564.765625 337.058594 565.320312 337.402344 L 565.320312 337.40625 C 565.253906 337.121094 565.183594 336.796875 565.097656 336.4375 C 565.042969 336.136719 564.996094 335.839844 564.960938 335.542969 C 564.886719 334.777344 564.917969 334.277344 565.054688 334.035156 C 565.246094 333.710938 565.519531 333.523438 565.878906 333.472656 C 565.925781 333.464844 565.972656 333.464844 566.019531 333.464844 C 566.101562 333.464844 566.191406 333.472656 566.277344 333.492188 L 567.636719 333.832031 C 567.960938 333.808594 568.136719 333.703125 568.167969 333.511719 C 568.15625 333.257812 568.066406 332.917969 567.894531 332.496094 L 567.902344 332.5 C 569.476562 333.046875 570.996094 333.46875 572.453125 333.769531 C 572.570312 333.859375 574.863281 334.25 579.332031 334.941406 C 584.644531 336.238281 587.625 336.886719 588.28125 336.886719 C 588.296875 336.886719 588.316406 336.886719 588.328125 336.886719 C 591.28125 337.253906 594.101562 337.441406 596.789062 337.441406 C 599.003906 337.441406 601.125 337.3125 603.15625 337.0625 C 606.929688 336.699219 610.492188 335.75 613.847656 334.21875 C 618.035156 332.09375 622.527344 329.527344 627.332031 326.519531 C 627.558594 326.375 627.777344 326.238281 627.980469 326.101562 L 627.976562 326.105469 C 629.089844 325.792969 630.1875 325.527344 631.273438 325.304688 Z M 573.90625 344.289062 C 573.910156 344.289062 573.914062 344.292969 573.921875 344.292969 L 573.914062 344.296875 C 573.925781 344.605469 573.921875 344.917969 573.902344 345.226562 C 573.476562 346.570312 572.992188 349.492188 572.449219 353.988281 L 572.449219 353.992188 C 572.167969 353.433594 571.875 352.859375 571.566406 352.261719 C 570.8125 350.238281 570.316406 348.507812 570.070312 347.074219 L 573.898438 344.289062 Z M 628.246094 344.628906 C 628.121094 345.226562 628.007812 345.78125 627.914062 346.300781 C 628.574219 345.851562 629.191406 345.375 629.773438 344.875 L 629.777344 344.878906 C 629.496094 347.945312 629.066406 350.878906 628.484375 353.671875 C 628.265625 354.472656 628.054688 355.242188 627.851562 355.976562 C 627.832031 355.917969 627.8125 355.859375 627.792969 355.800781 C 627.699219 355.535156 627.621094 355.261719 627.550781 354.980469 L 627.546875 354.984375 C 627.445312 355.300781 627.339844 355.621094 627.234375 355.953125 C 627.277344 355.414062 627.335938 354.875 627.410156 354.335938 L 627.417969 354.339844 C 627.457031 354.554688 627.5 354.765625 627.550781 354.96875 L 627.550781 354.972656 C 627.757812 354.308594 627.953125 353.664062 628.128906 353.042969 C 628.3125 352.402344 628.390625 352.03125 628.359375 351.921875 C 628.351562 351.601562 628.261719 351.375 628.085938 351.246094 C 628.007812 351.289062 627.960938 351.378906 627.9375 351.523438 C 627.714844 352.46875 627.546875 353.359375 627.433594 354.1875 C 627.425781 354.230469 627.417969 354.273438 627.414062 354.316406 L 627.414062 354.320312 C 627.304688 353.691406 627.242188 353.019531 627.234375 352.304688 C 627.195312 351.453125 627.351562 349.875 627.699219 347.574219 C 627.757812 347.179688 627.832031 346.757812 627.914062 346.304688 L 627.90625 346.304688 C 627.464844 346.605469 627.007812 346.894531 626.53125 347.171875 C 626.726562 346.148438 626.785156 345.460938 626.710938 345.101562 L 628.238281 344.628906 Z M 627.265625 359.121094 C 627.304688 359.324219 627.347656 359.527344 627.398438 359.734375 C 627.472656 360.050781 627.738281 360.523438 628.1875 361.152344 L 626.242188 361.742188 L 626.242188 361.746094 C 626.375 361.277344 626.511719 360.789062 626.65625 360.273438 L 626.652344 360.273438 L 627.261719 359.121094 Z M 626.238281 361.746094 C 626.179688 361.964844 626.117188 362.175781 626.058594 362.386719 L 626.050781 362.386719 C 625.984375 362.214844 625.917969 362.039062 625.851562 361.863281 L 625.84375 361.863281 L 626.234375 361.746094 Z M 715.25 304.449219 C 714.746094 304.449219 714.007812 304.753906 713.039062 305.367188 C 691.800781 328.753906 679.671875 341.757812 676.65625 344.382812 C 665.535156 354.601562 657.460938 361.667969 652.429688 365.578125 L 679.957031 347.039062 C 695.800781 331.886719 705.984375 321.347656 710.511719 315.414062 C 714.183594 310.753906 716.015625 307.695312 716 306.234375 C 716.203125 305.046875 715.953125 304.449219 715.25 304.449219 Z M 864.769531 299.507812 L 862.539062 301.121094 C 861.34375 302.871094 859.78125 307.726562 857.851562 315.679688 C 854.925781 332.066406 852.339844 345.3125 850.097656 355.414062 L 850.105469 355.414062 C 852.414062 347.660156 855.363281 338.546875 858.953125 328.078125 L 863.988281 309.75 C 864.539062 309.8125 865.121094 312.535156 865.730469 317.917969 L 869.640625 357.921875 L 870.996094 370.039062 C 871.113281 370.742188 871.253906 371.09375 871.429688 371.09375 C 871.496094 371.09375 871.566406 371.042969 871.640625 370.9375 C 872.429688 360.703125 871.789062 340.515625 869.71875 310.375 L 869.726562 310.375 C 870.027344 311.03125 870.320312 311.675781 870.605469 312.304688 L 870.613281 312.304688 C 870.28125 311.230469 869.957031 310.164062 869.640625 309.113281 L 869.632812 309.113281 C 869.660156 309.527344 869.6875 309.941406 869.71875 310.351562 C 868.230469 307.085938 866.582031 303.472656 864.769531 299.507812 Z M 850.046875 355.613281 C 849.789062 356.472656 849.542969 357.320312 849.300781 358.148438 C 847.121094 365.964844 845.851562 371.007812 845.488281 373.277344 C 846.804688 369.261719 848.328125 363.371094 850.054688 355.613281 Z M 870.648438 312.417969 C 874.410156 324.515625 879.292969 337.886719 885.300781 352.53125 C 886.816406 356.832031 890.390625 364.105469 896.027344 374.351562 C 895.585938 371.480469 890.203125 357.777344 879.882812 333.230469 L 879.894531 333.230469 C 879.898438 333.234375 879.902344 333.234375 879.902344 333.234375 C 880.050781 333.234375 876.972656 326.296875 870.65625 312.417969 Z M 599.738281 375.085938 C 599.609375 375.085938 599.527344 375.117188 599.488281 375.183594 C 600.152344 375.820312 601.9375 376.265625 604.835938 376.515625 L 604.835938 376.519531 C 603.648438 376.242188 602.050781 375.78125 600.046875 375.128906 C 599.925781 375.101562 599.820312 375.085938 599.738281 375.085938 Z M 599.058594 376.210938 L 599.691406 376.644531 L 599.691406 376.648438 C 599.398438 376.488281 599.183594 376.339844 599.050781 376.210938 Z M 604.839844 376.515625 C 605.378906 376.640625 605.832031 376.726562 606.203125 376.773438 C 606.566406 376.851562 607.027344 376.894531 607.578125 376.894531 C 608.152344 376.894531 608.828125 376.851562 609.601562 376.761719 C 609.726562 376.75 609.851562 376.734375 609.976562 376.714844 L 609.972656 376.714844 C 609.757812 376.71875 609.539062 376.71875 609.320312 376.71875 C 608.691406 376.71875 608.035156 376.707031 607.351562 376.675781 C 606.441406 376.636719 605.601562 376.582031 604.84375 376.515625 Z M 763.6875 307.273438 C 763.207031 309.351562 762.761719 311.042969 762.347656 312.351562 L 748.503906 356.679688 C 746.335938 364.070312 744.351562 371.984375 742.546875 380.425781 C 742.941406 379.707031 743.652344 377.402344 744.683594 373.515625 C 748.484375 358.191406 750.761719 349.59375 751.515625 347.726562 C 752.988281 342.523438 757.207031 330.78125 764.164062 312.5 C 764.933594 338.582031 765.917969 359.390625 767.113281 374.929688 C 766.8125 341.433594 766.253906 321.386719 765.4375 314.789062 C 765.402344 314.332031 765.496094 314.054688 765.71875 313.957031 C 765.980469 313.960938 766.226562 314.230469 766.457031 314.769531 L 766.542969 314.984375 C 771.265625 328.429688 774.71875 337.207031 776.894531 341.316406 C 781.042969 350.078125 784.078125 356.25 786.003906 359.839844 L 790.855469 368.871094 C 790.96875 369.125 791.078125 369.253906 791.1875 369.253906 C 791.269531 369.253906 791.347656 369.175781 791.425781 369.023438 C 791.878906 367.910156 791.257812 365.65625 789.566406 362.265625 L 772.261719 327.320312 C 767.5 315.601562 765.175781 309.386719 765.296875 308.679688 Z M 562.875 368.441406 C 562.707031 369.195312 562.738281 370.570312 562.972656 372.570312 C 563.03125 372.996094 563.09375 373.429688 563.167969 373.878906 L 564.371094 381.066406 C 564.515625 381.859375 564.648438 382.449219 564.769531 382.832031 C 564.804688 382.886719 564.84375 382.914062 564.882812 382.914062 C 565.003906 382.914062 565.144531 382.632812 565.300781 382.074219 C 565.410156 381.425781 565.46875 380.574219 565.476562 379.527344 C 565.460938 376.925781 565.253906 374.53125 564.859375 372.347656 L 562.878906 368.441406 Z M 737.625 320.613281 C 736.0625 322.878906 734.554688 325.054688 733.097656 327.140625 C 732.832031 325.925781 731.5625 324.464844 729.285156 322.761719 C 728.480469 322.132812 727.667969 321.816406 726.855469 321.816406 C 726.300781 321.816406 725.746094 321.960938 725.1875 322.253906 C 710.847656 333.40625 700.765625 342.914062 694.933594 350.769531 C 689.492188 357.671875 685.84375 363.457031 683.992188 368.128906 C 678.476562 381.933594 676.257812 389.765625 677.335938 391.632812 L 686.914062 380.132812 C 690.9375 374.320312 694.859375 369.328125 698.6875 365.144531 C 714.148438 347.730469 724.359375 336.847656 729.320312 332.503906 L 729.328125 332.503906 C 723.328125 340.980469 718.339844 347.714844 714.359375 352.710938 C 693.566406 377.738281 683.214844 390.519531 683.300781 391.046875 C 708.507812 366.902344 726.617188 343.425781 737.628906 320.613281 Z M 578.855469 392.128906 L 578.855469 392.132812 C 579.527344 394.03125 580.507812 396.519531 581.800781 399.59375 L 581.800781 399.597656 C 581.300781 397.40625 580.320312 394.917969 578.859375 392.128906 Z M 906.96875 380.992188 C 906.894531 380.992188 906.816406 380.996094 906.734375 381 L 877.800781 384.34375 L 857.492188 386.203125 C 850.382812 386.496094 845.515625 386.640625 842.890625 386.640625 C 841.640625 386.640625 840.898438 386.605469 840.664062 386.542969 L 840.652344 386.542969 L 841.382812 388.765625 C 844.777344 393.488281 849.171875 396.628906 854.566406 398.183594 C 859.460938 399.496094 864.777344 400.152344 870.511719 400.152344 C 873.238281 400.152344 876.058594 400.003906 878.96875 399.707031 C 885.164062 399.195312 891.398438 397.210938 897.679688 393.753906 C 903.199219 390.621094 906.769531 386.609375 908.394531 381.71875 C 908.246094 381.234375 907.773438 380.992188 906.96875 380.992188 Z M 801.484375 387.929688 C 801.261719 387.929688 801 387.9375 800.699219 387.949219 L 767.105469 390.234375 C 760.933594 390.769531 750.382812 392.136719 735.449219 394.332031 L 740.191406 398.230469 C 746.519531 405.042969 754.582031 408.449219 764.375 408.449219 C 766.4375 408.449219 768.578125 408.296875 770.792969 407.996094 C 776.546875 407.398438 784.050781 404.585938 793.304688 399.5625 C 799.828125 395.039062 802.867188 391.214844 802.429688 388.085938 C 802.390625 387.980469 802.074219 387.929688 801.484375 387.929688 Z M 603.429688 384.898438 L 605.960938 387.125 C 606.3125 387.511719 606.449219 388.207031 606.367188 389.207031 C 606.277344 389.882812 606.058594 390.597656 605.714844 391.351562 C 603.632812 395.109375 602.515625 397.277344 602.367188 397.863281 C 601.578125 399.789062 600.941406 401.5625 600.453125 403.1875 C 598.945312 408.605469 597.964844 413.632812 597.507812 418.269531 C 597.632812 418.246094 597.792969 417.90625 597.992188 417.25 C 599.351562 412.453125 600.347656 409.257812 600.976562 407.675781 C 601.925781 405.199219 602.957031 402.894531 604.070312 400.765625 C 606.167969 396.671875 609.683594 391.523438 614.625 385.316406 L 614.617188 385.320312 C 613.765625 385.566406 612.535156 385.6875 610.925781 385.6875 C 610.058594 385.6875 609.078125 385.652344 607.984375 385.582031 C 606.226562 385.410156 604.710938 385.183594 603.4375 384.898438 Z M 581.804688 399.625 C 581.832031 399.734375 581.855469 399.84375 581.875 399.949219 C 582.265625 400.542969 582.945312 405.992188 583.914062 416.300781 C 584.167969 418.097656 584.492188 419.726562 584.894531 421.183594 C 587.5625 428.285156 590.84375 432.363281 594.742188 433.421875 C 594.828125 433.355469 594.800781 433.222656 594.664062 433.027344 C 592.503906 430.304688 590.816406 428.039062 589.601562 426.226562 C 588.078125 423.746094 587.175781 422.042969 586.890625 421.113281 C 586.523438 420.148438 586.191406 418.921875 585.894531 417.441406 C 585.011719 409.761719 584.328125 405.402344 583.84375 404.367188 C 583.097656 402.65625 582.421875 401.074219 581.8125 399.625 Z M 598.886719 440.488281 C 598.121094 441 596.890625 441.621094 595.195312 442.351562 C 589.273438 444.671875 585.058594 446.394531 582.554688 447.519531 C 580.246094 448.621094 579.21875 449.214844 579.46875 449.300781 C 579.269531 449.757812 579.738281 450.148438 580.882812 450.460938 C 581.359375 450.542969 581.804688 450.582031 582.226562 450.582031 C 582.804688 450.582031 583.332031 450.507812 583.8125 450.359375 C 587.289062 449.523438 591.117188 447.933594 595.292969 445.585938 L 598.890625 440.488281 Z M 574.046875 450.65625 C 573.472656 452.835938 572.730469 455.160156 571.820312 457.625 L 566.03125 469.039062 L 566.03125 469.042969 C 566.253906 468.488281 566.476562 467.953125 566.691406 467.441406 C 569.867188 460.769531 572.320312 455.171875 574.042969 450.65625 Z M 562.019531 515.246094 L 562.019531 515.25 C 563.199219 517.929688 564.945312 520.867188 567.253906 524.058594 C 565.324219 521.179688 563.578125 518.242188 562.023438 515.246094 Z M 590.195312 521.054688 C 586.765625 524.808594 583.097656 528.789062 579.191406 532.996094 C 583.289062 528.65625 586.960938 524.675781 590.199219 521.054688 Z M 607.457031 407.339844 C 599.453125 416.234375 597.761719 434.902344 602.390625 463.347656 C 602.460938 463.683594 602.539062 464.027344 602.625 464.378906 L 604.472656 460.597656 L 604.480469 460.601562 C 604.4375 462.0625 604.132812 463.691406 603.5625 465.484375 L 603.5625 465.488281 L 602.640625 464.421875 L 602.636719 464.421875 C 602.632812 464.410156 602.628906 464.398438 602.628906 464.386719 L 602.621094 464.386719 L 602.617188 464.394531 L 601.542969 463.152344 L 601.535156 463.15625 C 601.71875 463.839844 601.929688 464.5625 602.164062 465.332031 L 602.160156 465.332031 L 594.328125 481.335938 C 588.125 488.722656 581.136719 496.226562 573.363281 503.84375 L 573.363281 503.847656 C 585.269531 492.253906 592.613281 484.484375 595.390625 480.542969 C 598.886719 475.554688 601.371094 471.195312 602.851562 467.464844 L 602.859375 467.46875 C 604.34375 471.839844 606.570312 477.320312 609.535156 483.90625 C 609.789062 484.648438 610.546875 486.195312 611.808594 488.554688 L 611.808594 488.558594 C 611.957031 488.035156 612.085938 487.527344 612.195312 487.03125 L 612.199219 487.035156 C 612.464844 487.550781 612.726562 488.074219 612.988281 488.597656 L 612.890625 486.476562 L 612.894531 486.480469 C 614.242188 490.125 615.34375 492.953125 616.207031 494.96875 L 617.011719 496.734375 L 617.003906 496.738281 C 615.652344 493.953125 614.316406 491.246094 612.996094 488.609375 L 612.988281 488.613281 L 613.101562 490.933594 C 612.625 490.070312 612.195312 489.277344 611.8125 488.5625 L 611.808594 488.566406 C 610.679688 492.550781 608.484375 497.214844 605.222656 502.554688 C 602.292969 506.960938 597.378906 513.023438 590.480469 520.746094 C 599.917969 510.40625 607.519531 501.789062 613.289062 494.898438 L 613.101562 490.945312 L 613.105469 490.945312 C 614.730469 493.894531 616.890625 497.710938 619.589844 502.390625 L 619.582031 502.390625 L 619.9375 503.167969 C 619.90625 503.058594 619.878906 502.953125 619.847656 502.847656 L 619.851562 502.847656 C 620.011719 503.125 620.175781 503.40625 620.339844 503.6875 L 620.339844 503.691406 C 620.125 503.242188 619.914062 502.792969 619.703125 502.347656 L 619.695312 502.351562 C 619.496094 501.707031 619.269531 501.082031 619.015625 500.480469 L 619.023438 500.480469 L 623.53125 508.898438 C 623.511719 509.171875 623.484375 509.445312 623.457031 509.722656 L 623.457031 509.726562 C 622.800781 508.386719 622.074219 506.917969 621.28125 505.316406 C 620.972656 504.785156 620.671875 504.261719 620.375 503.746094 L 620.367188 503.75 C 621.371094 505.871094 622.382812 508.03125 623.40625 510.230469 L 623.40625 510.234375 C 623.421875 510.066406 623.441406 509.898438 623.457031 509.734375 L 623.460938 509.734375 C 625.390625 513.664062 626.726562 516.441406 627.460938 518.066406 L 635.273438 536.320312 C 636.011719 537.953125 636.691406 539.222656 637.316406 540.140625 C 637.34375 540.160156 637.367188 540.171875 637.386719 540.171875 C 637.449219 540.171875 637.429688 540.019531 637.320312 539.714844 C 635.621094 534.839844 632.734375 526 628.660156 513.1875 C 627.023438 508.296875 625.578125 504.328125 624.324219 501.289062 C 623.105469 498.316406 621.367188 494.613281 619.113281 490.183594 C 612.9375 479.667969 609.671875 473.652344 609.320312 472.128906 L 607.578125 470.121094 L 607.582031 471.511719 C 609.464844 476.960938 611.101562 481.589844 612.5 485.402344 C 612.644531 484.429688 612.710938 483.507812 612.699219 482.636719 L 612.707031 482.640625 L 612.886719 486.457031 L 612.886719 486.460938 C 612.761719 486.117188 612.632812 485.769531 612.503906 485.414062 L 612.496094 485.414062 C 612.417969 485.9375 612.320312 486.472656 612.195312 487.023438 C 610.609375 483.886719 609.046875 480.855469 607.503906 477.933594 C 605.597656 473.632812 604.164062 469.839844 603.207031 466.550781 L 603.199219 466.554688 C 603.332031 466.191406 603.453125 465.839844 603.5625 465.492188 L 603.566406 465.492188 L 607.578125 470.121094 Z M 648.027344 481.710938 C 647.90625 481.710938 647.789062 481.734375 647.675781 481.773438 C 647.648438 481.757812 647.625 481.75 647.601562 481.75 C 647.304688 481.75 647.285156 483.105469 647.542969 485.816406 C 650.207031 503.765625 652.625 523.242188 654.804688 544.246094 L 652.777344 502.890625 L 652.785156 502.894531 C 656.558594 507.695312 662.859375 516.078125 671.6875 528.039062 C 673.28125 529.957031 674.234375 530.917969 674.550781 530.917969 C 674.609375 530.917969 674.644531 530.886719 674.660156 530.824219 C 670.679688 520.378906 665.617188 509.386719 659.472656 497.847656 C 657.066406 493.511719 654.035156 488.703125 650.386719 483.421875 C 649.457031 482.28125 648.671875 481.710938 648.027344 481.710938 Z M 609.019531 296.492188 C 606.882812 296.492188 604.714844 296.757812 602.515625 297.289062 C 598.5 298.171875 595.320312 299.417969 592.976562 301.019531 C 590.433594 302.875 588.710938 304.929688 587.800781 307.1875 C 587.558594 307.078125 587.316406 306.984375 587.074219 306.902344 L 587.066406 306.90625 L 584.308594 309.914062 C 584.167969 309.910156 584.027344 309.90625 583.886719 309.90625 C 582.015625 309.90625 580.222656 310.199219 578.503906 310.777344 L 578.503906 310.78125 C 578.871094 310.757812 579.242188 310.75 579.617188 310.75 C 580.726562 310.75 581.867188 310.832031 583.039062 311 L 583.039062 311.003906 L 583.714844 310.5625 L 584.308594 309.914062 L 584.316406 309.914062 C 584.441406 309.917969 584.566406 309.921875 584.691406 309.925781 L 583.714844 310.5625 L 583.28125 311.039062 C 583.199219 311.027344 583.121094 311.015625 583.042969 311.003906 L 583.039062 311.003906 L 582.492188 311.359375 C 582.222656 311.347656 581.945312 311.339844 581.660156 311.335938 C 579.078125 311.355469 577.054688 311.730469 575.597656 312.46875 L 577.59375 311.117188 L 577.585938 311.117188 C 575.742188 311.863281 573.984375 312.949219 572.3125 314.382812 C 568.78125 317.773438 567.082031 321.859375 567.214844 326.640625 L 567.214844 326.644531 C 567.832031 323.507812 569.121094 320.886719 571.089844 318.777344 L 582.488281 311.359375 L 582.496094 311.359375 C 583.105469 311.390625 583.671875 311.445312 584.1875 311.527344 C 585.195312 311.671875 586.832031 311.988281 589.101562 312.472656 C 590 312.628906 590.703125 312.734375 591.214844 312.789062 C 591.394531 312.8125 591.5625 312.824219 591.714844 312.824219 C 592.144531 312.824219 592.472656 312.730469 592.703125 312.542969 C 593.214844 312.222656 593.242188 311.761719 592.785156 311.171875 C 591.640625 309.789062 590.488281 308.738281 589.332031 308.015625 C 589.261719 307.972656 589.195312 307.929688 589.125 307.886719 L 589.121094 307.890625 L 594.167969 306.808594 L 594.171875 306.8125 C 593.964844 306.976562 593.753906 307.152344 593.546875 307.328125 L 597.84375 308.660156 C 598.804688 308.429688 600.089844 308.3125 601.691406 308.3125 C 601.773438 308.3125 601.859375 308.3125 601.945312 308.3125 C 603.964844 308.3125 607.214844 308.441406 611.703125 308.707031 C 612.210938 308.722656 612.691406 308.730469 613.136719 308.730469 C 613.65625 308.730469 614.128906 308.71875 614.558594 308.699219 C 616.128906 308.679688 618.863281 308.246094 622.765625 307.394531 C 624.046875 307.226562 625.308594 307.128906 626.554688 307.097656 C 629.125 307.148438 631.367188 307.402344 633.28125 307.851562 C 636.925781 308.8125 639.414062 310.214844 640.75 312.054688 C 641.328125 312.789062 641.757812 313.683594 642.039062 314.738281 L 640.257812 311.921875 L 640.25 311.925781 C 640.359375 313.503906 639.699219 315.304688 638.269531 317.320312 L 638.269531 317.324219 C 638.203125 312.632812 636.859375 310.019531 634.246094 309.492188 C 632.769531 309.148438 631.523438 308.976562 630.511719 308.976562 C 630.140625 308.976562 629.804688 308.996094 629.496094 309.042969 C 629.488281 309.042969 629.476562 309.042969 629.46875 309.042969 C 628.5625 309.042969 625.289062 309.558594 619.652344 310.589844 C 617.78125 310.832031 616.277344 310.953125 615.136719 310.953125 C 614.957031 310.953125 614.78125 310.949219 614.621094 310.945312 C 613.675781 310.9375 612.628906 310.847656 611.476562 310.671875 L 606.167969 309.339844 C 605.105469 309.136719 604.164062 309.035156 603.351562 309.035156 C 603.261719 309.035156 603.175781 309.039062 603.089844 309.039062 C 600.105469 309.132812 597.332031 309.683594 594.765625 310.6875 L 600.75 312.480469 C 605.089844 314.230469 608.769531 315.183594 611.796875 315.347656 C 612.089844 315.382812 612.449219 315.402344 612.871094 315.402344 C 613.699219 315.402344 614.765625 315.335938 616.082031 315.203125 C 616.089844 315.203125 616.101562 315.203125 616.117188 315.203125 C 616.496094 315.203125 618.355469 314.878906 621.703125 314.230469 C 622.671875 314.074219 623.410156 313.988281 623.921875 313.96875 C 624.507812 313.933594 625.058594 313.917969 625.5625 313.917969 C 626.878906 313.917969 627.917969 314.03125 628.679688 314.257812 C 630.363281 314.445312 633.109375 315.753906 636.910156 318.179688 C 637.023438 318.269531 637.132812 318.367188 637.230469 318.464844 C 637.535156 318.179688 637.828125 317.875 638.097656 317.558594 C 638.15625 317.480469 638.210938 317.40625 638.261719 317.328125 L 638.269531 317.332031 C 638.28125 318.261719 638.246094 319.277344 638.15625 320.375 L 638.15625 320.378906 C 638.101562 319.65625 637.792969 319.023438 637.234375 318.46875 L 637.226562 318.46875 C 636.835938 318.832031 636.414062 319.167969 635.964844 319.472656 C 635.617188 319.71875 634.851562 320.117188 633.664062 320.671875 L 631.066406 318.914062 C 631.0625 318.914062 631.0625 318.914062 631.058594 318.914062 C 630.941406 318.914062 630.742188 319.09375 630.46875 319.453125 C 629.722656 321.023438 628.757812 322.472656 627.578125 323.808594 C 626.742188 324.710938 625.601562 325.472656 624.152344 326.089844 L 619.5 328.609375 L 619.492188 328.609375 C 618.523438 328.945312 617.601562 329.222656 616.734375 329.445312 C 610.113281 331.164062 603.394531 332.445312 596.582031 333.28125 C 593.769531 333.589844 590.953125 333.746094 588.128906 333.746094 C 585.871094 333.746094 583.609375 333.648438 581.347656 333.449219 C 578.480469 333.238281 575.953125 332.9375 573.761719 332.546875 C 571.300781 332.140625 569.128906 331.675781 567.25 331.152344 L 567.242188 331.15625 C 567.523438 331.667969 567.742188 332.117188 567.894531 332.496094 C 567.015625 332.1875 566.117188 331.84375 565.203125 331.460938 L 565.308594 330.847656 C 565.445312 330.765625 565.582031 330.726562 565.722656 330.726562 C 565.773438 330.726562 565.824219 330.730469 565.875 330.742188 C 566.3125 330.882812 566.769531 331.019531 567.242188 331.152344 C 567.167969 331.015625 567.089844 330.875 567.007812 330.730469 L 567.011719 330.730469 L 567.445312 330.847656 C 567.453125 329.871094 566.398438 329.242188 564.285156 328.964844 C 564.121094 328.9375 563.960938 328.917969 563.808594 328.898438 L 563.804688 328.902344 C 563.855469 329.070312 563.910156 329.238281 563.96875 329.402344 C 563.886719 329.238281 563.8125 329.070312 563.746094 328.894531 L 563.75 328.894531 C 563.769531 328.894531 563.785156 328.898438 563.804688 328.898438 L 563.804688 328.902344 C 563.589844 328.203125 563.429688 327.472656 563.320312 326.703125 L 563.316406 326.703125 C 563.355469 327.515625 563.5 328.246094 563.746094 328.894531 C 563.429688 328.859375 563.136719 328.839844 562.867188 328.839844 C 562.476562 328.839844 562.136719 328.878906 561.839844 328.949219 L 561.839844 328.953125 C 561.734375 328.222656 561.640625 327.53125 561.566406 326.878906 L 561.558594 326.878906 C 561.433594 327.644531 561.441406 328.363281 561.589844 329.027344 C 561.667969 329 561.75 328.972656 561.835938 328.953125 L 561.839844 328.953125 C 561.878906 329.214844 561.921875 329.484375 561.964844 329.761719 C 561.960938 329.808594 561.949219 329.832031 561.933594 329.832031 C 561.894531 329.832031 561.820312 329.71875 561.714844 329.492188 C 561.664062 329.339844 561.621094 329.183594 561.589844 329.027344 L 561.582031 329.03125 C 561.125 329.195312 560.8125 329.46875 560.648438 329.855469 C 560.578125 330.234375 560.597656 330.636719 560.703125 331.070312 C 561.304688 333.640625 561.777344 335.210938 562.117188 335.785156 C 562.21875 336.011719 562.335938 336.234375 562.464844 336.453125 L 562.464844 336.457031 C 562.378906 336.441406 562.289062 336.433594 562.199219 336.433594 C 560.554688 336.433594 558.066406 338.503906 554.734375 342.644531 L 554.726562 342.644531 C 553.699219 343.335938 552.589844 344.453125 551.410156 345.996094 C 549.980469 347.8125 548.914062 350.226562 548.207031 353.238281 C 547.6875 355.453125 548.117188 358.300781 549.492188 361.785156 L 549.488281 361.785156 C 549.523438 362.390625 549.59375 362.933594 549.695312 363.40625 C 549.902344 364.933594 550.699219 367.308594 552.09375 370.539062 C 552.382812 371.667969 552.46875 372.710938 552.359375 373.667969 C 552.558594 374.902344 550.792969 379.9375 547.066406 388.773438 C 546.429688 391.113281 546.101562 393.179688 546.085938 394.972656 C 546.125 397.566406 546.285156 399.519531 546.558594 400.835938 C 547.132812 403.964844 548.074219 408.035156 549.386719 413.039062 C 549.835938 415.46875 550.09375 417.296875 550.164062 418.527344 C 550.414062 422.472656 550.082031 426.613281 549.179688 430.945312 C 548.382812 434.039062 547.242188 436.730469 545.757812 439.019531 C 539.09375 446.597656 535.355469 451.375 534.546875 453.359375 C 532.9375 456.277344 532.027344 459.332031 531.8125 462.523438 C 531.679688 466.429688 532.285156 469.765625 533.628906 472.53125 C 535.308594 467.992188 536.535156 465.007812 537.308594 463.578125 C 538.105469 461.59375 541.738281 454.972656 548.203125 443.710938 C 549.679688 440.710938 550.785156 438.003906 551.527344 435.59375 C 552.769531 430.925781 553.257812 427.167969 552.996094 424.316406 C 552.933594 423.214844 552.757812 421.824219 552.464844 420.144531 C 550.886719 413.355469 550.054688 409.09375 549.972656 407.355469 C 549.691406 405.363281 549.667969 402.449219 549.910156 398.621094 C 550.96875 390.648438 552.839844 383.941406 555.523438 378.492188 L 555.53125 378.496094 C 555.664062 379.671875 555.691406 381.382812 555.609375 383.628906 C 554.925781 390.984375 554.625 394.855469 554.707031 395.246094 C 554.6875 396.910156 554.847656 398.546875 555.179688 400.164062 C 555.445312 401.847656 556.96875 405.710938 559.746094 411.753906 L 559.742188 411.757812 C 560.371094 417.5 560.402344 422.128906 559.835938 425.640625 C 559.484375 427.945312 558.976562 430.171875 558.304688 432.316406 C 552.117188 446.902344 548.71875 456.503906 548.109375 461.113281 C 546.382812 467.945312 546.394531 474.070312 548.144531 479.480469 C 549.421875 483.351562 550.636719 486.425781 551.78125 488.703125 C 551.386719 484.019531 551.226562 480.742188 551.304688 478.871094 C 551.472656 474.308594 551.9375 470.472656 552.699219 467.355469 C 553.085938 465.203125 554.171875 461.929688 555.949219 457.535156 C 560.46875 449.003906 562.761719 444.125 562.828125 442.894531 C 563.722656 440.339844 564.523438 436.160156 565.226562 430.347656 L 565.234375 430.351562 C 565.382812 432.078125 565.480469 434.28125 565.527344 436.964844 C 565.609375 440.847656 565.457031 449.707031 565.074219 463.535156 L 565.070312 463.535156 C 561.277344 471.117188 559.207031 475.476562 558.859375 476.617188 C 557.339844 480.371094 556.386719 483.480469 556.003906 485.953125 C 555.480469 489.476562 555.398438 493.074219 555.753906 496.734375 C 556.375 500.691406 557.449219 504.695312 558.976562 508.746094 C 559.886719 510.917969 560.890625 513.0625 561.988281 515.175781 L 561.988281 515.179688 C 561.191406 513.359375 560.652344 511.660156 560.375 510.074219 C 559.222656 505.902344 559.164062 499.605469 560.203125 491.191406 C 560.375 489.167969 560.671875 487.082031 561.097656 484.933594 L 561.089844 484.933594 C 564.429688 479.628906 567.988281 472.710938 571.761719 464.1875 L 571.753906 464.191406 C 571.789062 464.179688 571.824219 464.171875 571.859375 464.164062 C 573.941406 463.675781 576.730469 462.617188 580.230469 460.988281 C 582.167969 460.296875 587.238281 457.152344 595.4375 451.546875 L 598.148438 447.191406 L 598.140625 447.191406 C 594.445312 450.230469 590.898438 452.699219 587.5 454.601562 C 585.714844 455.796875 580.796875 458.25 572.734375 461.960938 L 572.734375 461.964844 C 573.117188 461.078125 573.5 460.179688 573.886719 459.265625 C 576.390625 453.714844 578.3125 448.359375 579.652344 443.203125 L 579.644531 443.203125 C 580.488281 443.183594 581.335938 443.074219 582.179688 442.871094 C 584.691406 442.394531 588.535156 440.328125 593.722656 436.671875 L 599.636719 431.550781 L 599.628906 431.550781 C 593.359375 434.535156 590.039062 436.039062 589.671875 436.058594 C 588.710938 436.496094 585.695312 437.488281 580.617188 439.03125 C 581.109375 436.613281 581.464844 434.242188 581.6875 431.917969 C 582.054688 424.53125 581.46875 419.207031 579.925781 415.941406 C 579.234375 414.199219 578.5 412.734375 577.722656 411.546875 C 573.625 406.105469 570.71875 401.921875 569.011719 398.992188 C 567.070312 395.257812 565.660156 391.769531 564.78125 388.527344 L 562.671875 386.335938 C 561.054688 389.984375 560.628906 393.625 561.394531 397.253906 C 561.78125 398.753906 562.382812 400.359375 563.199219 402.066406 C 569.566406 412.640625 573.046875 419.257812 573.644531 421.925781 C 574.386719 424.117188 574.929688 426.550781 575.265625 429.234375 L 573.164062 423.949219 L 573.160156 423.953125 C 574.425781 431.15625 573.820312 439.148438 571.34375 447.917969 C 570.292969 451.585938 568.984375 455.230469 567.417969 458.863281 C 567.324219 459.050781 567.226562 459.242188 567.132812 459.429688 C 567.277344 456.957031 567.371094 453.3125 567.417969 448.503906 C 567.566406 446.730469 567.695312 445.445312 567.800781 444.648438 C 568.636719 439.5625 569.160156 435.71875 569.378906 433.125 C 569.554688 431.378906 569.605469 429.792969 569.535156 428.363281 C 569.550781 427.195312 569.191406 425.300781 568.457031 422.679688 C 568.539062 422.316406 566.511719 417.570312 562.378906 408.441406 C 561.644531 406.484375 560.96875 403.671875 560.351562 400.007812 C 559.871094 396.28125 559.703125 393.773438 559.847656 392.488281 C 559.765625 391.945312 560.207031 388.734375 561.175781 382.851562 C 561.34375 381.417969 561.410156 379.929688 561.371094 378.378906 C 561.347656 377.074219 561.265625 375.828125 561.121094 374.640625 C 560.234375 368.933594 559.789062 365.835938 559.792969 365.34375 C 559.574219 362.96875 559.429688 361.105469 559.355469 359.753906 L 559.363281 359.757812 C 559.6875 360.605469 560.054688 361.429688 560.460938 362.238281 C 560.980469 363.277344 561.4375 364.136719 561.835938 364.824219 C 561.933594 364.980469 562.035156 365.0625 562.140625 365.0625 C 562.1875 365.0625 562.234375 365.046875 562.28125 365.015625 C 562.34375 364.9375 562.359375 364.777344 562.324219 364.535156 C 561.90625 362.484375 561.664062 361.132812 561.597656 360.476562 C 561.488281 359.601562 561.421875 358.820312 561.40625 358.125 C 561.40625 356.34375 561.605469 354.347656 562.007812 352.140625 C 562.613281 349.222656 563.386719 346.761719 564.320312 344.761719 C 564.699219 343.738281 565.375 342.597656 566.355469 341.339844 L 566.363281 341.34375 C 567.660156 342 568.664062 342.464844 569.382812 342.738281 L 569.382812 342.742188 C 569.820312 342.242188 570.363281 341.652344 571.007812 340.972656 L 573.589844 342.167969 C 573.78125 342.886719 573.886719 343.589844 573.914062 344.28125 L 573.910156 344.285156 L 573.902344 344.285156 L 573.902344 344.289062 C 572.585938 343.84375 571.195312 343.371094 569.726562 342.863281 C 569.621094 342.828125 569.507812 342.789062 569.386719 342.742188 L 569.378906 342.742188 C 568.464844 343.785156 567.992188 344.441406 567.964844 344.710938 C 567.410156 345.933594 567.070312 347.457031 566.945312 349.28125 C 566.871094 350.796875 566.992188 352.4375 567.3125 354.199219 C 567.476562 355.003906 567.667969 355.789062 567.878906 356.550781 C 568.878906 359.484375 569.476562 361.429688 569.675781 362.386719 C 570.125 364.3125 570.386719 366.046875 570.457031 367.589844 C 570.574219 369.003906 570.527344 370.828125 570.308594 373.058594 C 570.304688 373.765625 569.957031 375.910156 569.265625 379.484375 C 569.125 380.433594 569.027344 381.261719 568.980469 381.972656 C 568.878906 383.574219 568.9375 385.253906 569.160156 387.019531 C 569.664062 390.363281 570.609375 393.015625 571.992188 394.976562 C 573.210938 397.09375 575.863281 399.847656 579.945312 403.230469 C 580.054688 403.261719 580.148438 403.277344 580.222656 403.277344 C 580.476562 403.277344 580.550781 403.109375 580.441406 402.777344 C 577.699219 397.015625 576.121094 392.664062 575.699219 389.722656 C 575.527344 388.960938 575.382812 387.300781 575.269531 384.746094 C 575.210938 384.488281 575.222656 381.382812 575.3125 375.429688 C 575.296875 374.277344 575.226562 373.070312 575.109375 371.816406 C 574.96875 370.421875 574.21875 367.675781 572.863281 363.574219 C 572.550781 362.269531 572.324219 360.996094 572.183594 359.746094 C 572.0625 358.21875 572.132812 356.449219 572.394531 354.4375 C 572.410156 354.289062 572.429688 354.140625 572.445312 353.996094 L 572.453125 354 C 575.339844 359.722656 576.757812 363.214844 576.703125 364.488281 C 577.027344 366.074219 577.226562 367.953125 577.292969 370.125 C 577.414062 370.75 577.160156 374.625 576.53125 381.738281 C 576.484375 383.292969 576.574219 384.863281 576.796875 386.445312 C 576.96875 387.5625 577.300781 388.8125 577.800781 390.199219 C 578.171875 390.847656 578.519531 391.480469 578.84375 392.097656 C 578.230469 390.367188 577.878906 389.128906 577.78125 388.375 C 577.257812 386.125 577.128906 383.550781 577.394531 380.644531 C 577.414062 379.367188 578.296875 375.558594 580.042969 369.222656 C 580.261719 367.972656 580.355469 366.59375 580.3125 365.078125 C 580.300781 363.757812 579.957031 362.035156 579.285156 359.914062 C 579.164062 359.308594 578.027344 356.90625 575.871094 352.707031 C 575.425781 351.730469 575.121094 350.703125 574.945312 349.632812 C 574.644531 347.726562 574.71875 346.085938 575.167969 344.710938 L 575.175781 344.714844 C 578.070312 345.675781 580.558594 346.472656 582.640625 347.101562 C 587.585938 348.539062 593.710938 349.773438 601.019531 350.796875 C 604.542969 351.179688 607.730469 351.371094 610.578125 351.371094 C 617.898438 351.371094 622.980469 350.101562 625.816406 347.558594 L 625.808594 347.558594 C 625.925781 347.5 626.046875 347.441406 626.164062 347.378906 C 626.285156 347.3125 626.40625 347.242188 626.527344 347.175781 L 626.53125 347.175781 C 626.015625 349.910156 624.550781 355.011719 622.132812 362.480469 C 620.472656 367.183594 618.683594 370.6875 616.761719 373.003906 C 614.882812 375.097656 612.621094 376.332031 609.980469 376.714844 C 612.457031 376.671875 614.476562 376.378906 616.039062 375.839844 C 617.496094 375.363281 618.777344 374.726562 619.886719 373.933594 L 619.890625 373.9375 L 618.953125 375.421875 C 615.074219 376.519531 611.378906 377.066406 607.867188 377.066406 C 607.53125 377.066406 607.195312 377.0625 606.859375 377.050781 C 603.160156 377.007812 598.972656 376.160156 594.308594 374.515625 L 594.300781 374.515625 C 596.660156 375.71875 598.75 376.628906 600.578125 377.253906 L 600.570312 377.253906 L 601.136719 377.644531 C 602.46875 378.492188 604.378906 379.328125 606.871094 380.148438 C 607.894531 380.539062 609.324219 380.789062 611.164062 380.902344 C 611.667969 380.945312 612.148438 380.964844 612.605469 380.964844 C 613.191406 380.964844 613.738281 380.933594 614.242188 380.863281 L 614.25 380.867188 L 609.1875 382.679688 C 608.160156 382.585938 606.777344 382.300781 605.039062 381.824219 C 604.203125 381.65625 601.808594 380.835938 597.851562 379.367188 C 596.246094 378.917969 595.019531 378.664062 594.171875 378.613281 C 593.933594 378.730469 593.90625 378.902344 594.089844 379.128906 C 594.644531 379.695312 595.371094 380.386719 596.269531 381.199219 C 597.421875 382.214844 598.644531 383.042969 599.941406 383.675781 C 600.773438 384.15625 601.933594 384.566406 603.429688 384.898438 L 602.335938 383.933594 C 601.8125 383.273438 601.636719 382.808594 601.808594 382.535156 C 601.9375 382.140625 602.3125 381.941406 602.933594 381.941406 C 603.039062 381.941406 603.152344 381.949219 603.269531 381.960938 C 606.75 382.46875 609 382.835938 610.011719 383.058594 L 614.964844 384.886719 C 614.851562 385.03125 614.738281 385.175781 614.625 385.316406 C 615.039062 385.195312 615.363281 385.042969 615.597656 384.863281 C 616.855469 383.890625 616.660156 382.511719 615.011719 380.730469 L 615.003906 380.730469 C 615.34375 380.65625 615.660156 380.5625 615.957031 380.453125 C 617.289062 379.828125 617.765625 379.214844 617.386719 378.621094 C 617.140625 378.496094 616.890625 378.433594 616.628906 378.433594 C 616.613281 378.433594 616.601562 378.433594 616.585938 378.433594 C 616.296875 378.445312 614.859375 378.574219 612.273438 378.824219 C 611.769531 378.863281 611.175781 378.894531 610.492188 378.925781 C 609.902344 378.957031 609.359375 378.972656 608.867188 378.972656 C 607.976562 378.972656 607.253906 378.921875 606.6875 378.824219 C 604.996094 378.550781 603.785156 378.277344 603.054688 378.007812 C 602.917969 377.960938 602.785156 377.914062 602.652344 377.867188 L 602.660156 377.871094 C 602.832031 377.910156 603 377.949219 603.167969 377.984375 C 605.273438 378.347656 607.371094 378.53125 609.464844 378.53125 C 610.785156 378.53125 612.101562 378.460938 613.414062 378.3125 C 616.394531 377.84375 618.484375 376.980469 619.6875 375.726562 C 620.46875 375.164062 621.082031 374.097656 621.527344 372.527344 L 621.523438 372.527344 C 621.03125 373.039062 620.488281 373.503906 619.898438 373.925781 L 619.898438 373.929688 L 621.925781 370.714844 L 621.933594 370.714844 C 621.816406 371.375 621.683594 371.976562 621.53125 372.519531 C 622.03125 372 622.476562 371.433594 622.875 370.824219 L 622.882812 370.828125 C 623.8125 372.792969 624.996094 375.054688 626.433594 377.613281 C 626.753906 378.140625 627.042969 378.480469 627.304688 378.632812 L 627.304688 378.636719 C 627.59375 378.355469 627.882812 378.078125 628.171875 377.804688 L 628.175781 377.808594 C 628.183594 378.148438 628.148438 378.367188 628.070312 378.457031 C 627.929688 378.636719 627.777344 378.726562 627.613281 378.726562 C 627.515625 378.726562 627.414062 378.699219 627.308594 378.636719 L 627.304688 378.636719 C 624.515625 381.351562 621.6875 384.53125 618.820312 388.179688 C 617.453125 390.515625 616.226562 393.089844 615.140625 395.898438 L 615.140625 395.902344 L 615.644531 390.59375 L 615.636719 390.59375 C 613.257812 393.28125 611.585938 396.207031 610.632812 399.382812 C 609.628906 402.496094 608.800781 406.964844 608.144531 412.792969 C 607.730469 417.449219 607.667969 421.613281 607.960938 425.285156 C 608.078125 427.324219 608.574219 431.222656 609.445312 436.972656 L 609.4375 436.972656 C 609.828125 443.621094 610.824219 449.433594 612.417969 454.402344 C 613.371094 458.128906 614.5 461.945312 615.796875 465.851562 C 621.644531 481.03125 626.167969 493.800781 629.375 504.152344 C 634.777344 523.273438 638.703125 538.167969 641.152344 548.835938 C 639.832031 538.699219 637.835938 526.300781 635.175781 511.644531 C 634.191406 506.4375 631.703125 496.179688 627.710938 480.871094 C 626.460938 475.46875 625.421875 470.253906 624.59375 465.234375 C 622.558594 453.734375 621.578125 442.207031 621.648438 430.648438 C 621.761719 420.644531 623.847656 411.542969 627.902344 403.347656 C 628.078125 402.675781 628.425781 401.835938 628.941406 400.835938 L 628.949219 400.835938 C 628.292969 402.671875 627.648438 404.605469 627.015625 406.644531 C 623.804688 417.449219 622.160156 428.671875 622.085938 440.320312 C 622.105469 440.417969 622.132812 440.46875 622.171875 440.46875 C 622.347656 440.46875 622.730469 439.410156 623.320312 437.289062 L 627.011719 420.765625 C 627.128906 420.253906 627.34375 419.996094 627.65625 419.996094 C 627.820312 419.996094 628.007812 420.0625 628.222656 420.203125 C 628.875 420.902344 629.402344 421.679688 629.804688 422.53125 C 633.851562 433.582031 637.382812 441.589844 640.398438 446.554688 C 643.746094 452.246094 646.234375 456.316406 647.871094 458.765625 C 654.710938 467.710938 658.554688 472.898438 659.394531 474.332031 L 658.769531 471.4375 L 658.777344 471.441406 C 661.6875 476.566406 665.128906 482.601562 669.101562 489.542969 C 672.019531 494.992188 674.289062 499.757812 675.902344 503.84375 C 678.769531 510.738281 680.707031 515.929688 681.707031 519.417969 C 682.265625 520.453125 684.332031 529.238281 687.910156 545.765625 C 688.730469 548.566406 689.296875 549.96875 689.601562 549.96875 C 689.625 549.96875 689.648438 549.960938 689.667969 549.945312 C 688.84375 531.617188 686.144531 516.902344 681.574219 505.796875 C 679.871094 501.273438 676.917969 495.257812 672.71875 487.753906 L 672.714844 487.757812 C 672.820312 487.550781 672.917969 487.277344 673.007812 486.929688 C 673.355469 483.488281 673.457031 479.503906 673.3125 474.972656 C 673 469.074219 672.539062 463.839844 671.9375 459.265625 C 671.210938 454.136719 670.734375 451.035156 670.515625 449.96875 C 670.371094 449.273438 670.207031 448.621094 670.023438 448.011719 L 670.015625 448.015625 C 670.289062 446.664062 670.5625 445.371094 670.832031 444.140625 C 672.222656 438.160156 673.699219 432.84375 675.269531 428.1875 C 678.023438 420.355469 681.347656 411.824219 685.246094 402.597656 C 686.632812 399.171875 689.34375 393.679688 693.382812 386.125 L 695.796875 380.699219 C 695.78125 380.65625 695.746094 380.636719 695.699219 380.636719 C 695.539062 380.636719 695.214844 380.890625 694.730469 381.398438 L 673.53125 404.351562 C 671.640625 406.289062 669.988281 407.710938 668.574219 408.617188 L 671.09375 421.351562 C 668.058594 435.570312 666.046875 447.371094 665.046875 456.746094 C 664.539062 461.257812 664.292969 465.488281 664.3125 469.433594 C 664.34375 471.984375 664.554688 473.257812 664.945312 473.257812 C 665.078125 473.257812 665.234375 473.105469 665.410156 472.800781 C 665.519531 472.6875 665.660156 472.265625 665.832031 471.53125 C 667.199219 462.972656 668.503906 455.582031 669.742188 449.367188 L 669.75 449.367188 L 670.394531 468.417969 L 671.132812 483.199219 C 671.1875 483.972656 671.242188 484.648438 671.289062 485.226562 C 671.089844 484.878906 670.890625 484.523438 670.683594 484.167969 C 665.488281 476.953125 661.097656 470.753906 657.507812 465.566406 L 657.503906 465.566406 L 658.765625 471.421875 C 655.523438 465.703125 652.9375 461.113281 651.011719 457.652344 L 651.015625 457.652344 C 652.558594 459.511719 654.1875 461.367188 655.90625 463.226562 L 655.902344 463.226562 C 656.414062 463.976562 656.949219 464.75 657.5 465.550781 L 657.5 465.554688 L 643.40625 400.246094 L 643.398438 400.25 C 644.152344 397.121094 645.070312 393.871094 646.160156 390.492188 C 647.148438 387.101562 648.792969 383.300781 651.101562 379.085938 L 651.09375 379.085938 C 652.324219 377.726562 653.644531 376.425781 655.0625 375.1875 L 662.277344 362.609375 L 662.269531 362.609375 C 657.574219 365.191406 653.53125 368.230469 650.140625 371.730469 L 650.136719 371.734375 L 646.582031 373.433594 L 648.355469 368.476562 L 648.351562 368.476562 C 649.351562 367.878906 650.695312 366.925781 652.386719 365.609375 L 652.378906 365.613281 L 648.429688 368.269531 L 648.929688 366.878906 L 648.921875 366.878906 C 642.261719 367.414062 635.347656 371.054688 628.175781 377.800781 C 628.160156 376.914062 627.859375 375.191406 627.277344 372.632812 C 626.730469 370.460938 625.96875 368.257812 624.988281 366.03125 L 624.984375 366.035156 C 624.5 367.601562 624.21875 368.382812 624.128906 368.382812 C 624.125 368.382812 624.117188 368.378906 624.113281 368.371094 C 623.777344 369.253906 623.367188 370.070312 622.878906 370.820312 C 622.574219 370.175781 622.300781 369.5625 622.050781 368.984375 L 624.597656 365.164062 C 624.730469 365.453125 624.859375 365.738281 624.984375 366.023438 C 625.273438 365.09375 625.628906 363.886719 626.050781 362.402344 L 626.058594 362.402344 C 627.222656 365.40625 628.128906 367.3125 628.785156 368.125 C 629.628906 369.417969 630.6875 370.710938 631.960938 372 C 632.277344 372.335938 632.636719 372.648438 633.046875 372.941406 C 633.160156 373 633.246094 373.03125 633.300781 373.03125 C 633.351562 373.03125 633.375 373.007812 633.375 372.960938 C 633.460938 372.523438 632.824219 370.152344 631.464844 365.855469 C 631.296875 365.390625 631.058594 364.804688 630.753906 364.09375 L 627.976562 357.773438 L 627.265625 359.113281 C 627.226562 358.886719 627.195312 358.667969 627.171875 358.449219 L 627.167969 358.453125 C 627.382812 357.675781 627.609375 356.855469 627.851562 355.988281 L 627.855469 355.988281 C 628.324219 357.339844 628.75 358.183594 629.132812 358.515625 C 630.101562 359.445312 630.847656 359.910156 631.371094 359.910156 C 631.429688 359.910156 631.488281 359.902344 631.542969 359.890625 L 631.550781 359.890625 C 631.933594 360.917969 632.847656 362.617188 634.289062 364.996094 C 635.089844 366.34375 636.339844 367.597656 638.042969 368.765625 C 638.394531 369.050781 638.679688 369.191406 638.902344 369.191406 C 639.1875 369.191406 639.359375 368.957031 639.429688 368.488281 C 638.953125 366.460938 638.273438 364.46875 637.394531 362.515625 C 637.160156 361.804688 635.960938 359.523438 633.800781 355.675781 C 633.332031 354.667969 632.925781 353.78125 632.585938 353.011719 L 632.578125 353.011719 L 632.929688 350.644531 C 632.527344 349.644531 631.792969 347.429688 630.734375 343.996094 L 630.730469 343.996094 C 632.363281 342.378906 633.628906 340.53125 634.527344 338.445312 C 634.804688 337.832031 634.980469 337.214844 635.050781 336.59375 C 635.363281 331.863281 635.558594 329.496094 635.632812 329.496094 C 635.636719 329.496094 635.640625 329.503906 635.640625 329.511719 C 635.769531 328.597656 636.164062 327.207031 636.828125 325.347656 C 636.945312 324.863281 636.980469 324.441406 636.941406 324.082031 C 636.898438 323.695312 636.792969 323.339844 636.617188 323.023438 L 636.609375 323.023438 C 636.148438 323.085938 635.671875 323.125 635.175781 323.144531 C 633.703125 323.140625 632.601562 322.757812 631.867188 322 C 631.746094 321.800781 631.859375 321.578125 632.207031 321.332031 C 632.746094 321.09375 633.230469 320.871094 633.660156 320.671875 L 633.664062 320.675781 L 635.945312 322.214844 C 636.226562 322.453125 636.449219 322.722656 636.617188 323.023438 C 637.964844 322.835938 639.160156 322.453125 640.195312 321.871094 C 641.152344 321.390625 641.871094 320.613281 642.359375 319.535156 L 642.363281 319.535156 C 642.34375 319.828125 642.316406 320.128906 642.28125 320.4375 C 647.421875 312.675781 645.902344 306.824219 637.722656 302.878906 C 636.039062 302.355469 634.300781 302.097656 632.511719 302.097656 C 631.878906 302.097656 631.238281 302.128906 630.59375 302.195312 C 629.871094 302.214844 628.976562 302.296875 627.902344 302.445312 L 626.847656 302.085938 C 621.421875 299.480469 617.410156 297.835938 614.8125 297.15625 C 612.90625 296.714844 610.976562 296.492188 609.019531 296.492188 Z M 619.945312 503.199219 C 621.46875 508.828125 621.113281 515.835938 618.875 524.222656 C 617.796875 527.863281 616.355469 531.398438 614.546875 534.835938 C 611.714844 540.375 607.992188 546.695312 603.371094 553.789062 C 602.914062 554.589844 602.765625 555.09375 602.917969 555.296875 C 602.933594 555.308594 602.953125 555.3125 602.976562 555.3125 C 603.511719 555.3125 605.898438 552.03125 610.144531 545.46875 C 612.640625 541.507812 614.570312 537.894531 615.929688 534.628906 C 620.039062 525.75 622.511719 517.769531 623.351562 510.6875 L 623.359375 510.691406 L 635.933594 538.320312 C 631.632812 528.332031 627.457031 518.972656 623.410156 510.242188 L 623.402344 510.242188 C 623.386719 510.386719 623.371094 510.53125 623.355469 510.675781 L 623.355469 510.679688 L 619.953125 503.199219 Z M 619.945312 503.199219 "/></g></g></svg>